<svg width="24" height="25" viewBox="0 0 24 25" fill="none" xmlns="http://www.w3.org/2000/svg">
<path d="M22.0187 12C22.0191 11.3758 22.2086 10.7664 22.5623 10.2521C22.916 9.73783 23.4173 9.3428 24 9.11911C23.6984 7.85859 23.1986 6.65396 22.5191 5.55022C22.1234 5.72496 21.6957 5.81576 21.2631 5.81689C20.7489 5.81763 20.2426 5.68968 19.7905 5.44469C19.3384 5.19971 18.9547 4.84548 18.6745 4.41428C18.3943 3.98307 18.2265 3.48861 18.1863 2.97594C18.1461 2.46328 18.2349 1.9487 18.4444 1.47911C17.3425 0.800241 16.1397 0.300966 14.8809 0C14.6576 0.583141 14.2626 1.08481 13.7482 1.4387C13.2337 1.7926 12.624 1.98207 11.9996 1.98207C11.3751 1.98207 10.7654 1.7926 10.2509 1.4387C9.73648 1.08481 9.34151 0.583141 9.11822 0C7.8577 0.301589 6.65307 0.801443 5.54933 1.48089C5.75892 1.95048 5.84766 2.46506 5.80747 2.97772C5.76728 3.49039 5.59945 3.98485 5.31926 4.41605C5.03906 4.84725 4.65542 5.20149 4.20329 5.44647C3.75116 5.69146 3.24491 5.81941 2.73067 5.81867C2.29775 5.8206 1.86945 5.72967 1.47467 5.552C0.800967 6.65953 0.303476 7.86502 0 9.12533C0.582646 9.34871 1.08392 9.74341 1.43774 10.2574C1.79157 10.7714 1.98132 11.3805 1.982 12.0045C1.98267 12.6285 1.79423 13.2381 1.44152 13.7528C1.08881 14.2676 0.588385 14.6634 0.00622219 14.888C0.307811 16.1485 0.807666 17.3532 1.48711 18.4569C2.05643 18.2041 2.68899 18.1297 3.30143 18.2435C3.91387 18.3573 4.47746 18.654 4.91794 19.0945C5.35841 19.535 5.65511 20.0986 5.76893 20.711C5.88275 21.3235 5.80836 21.956 5.55556 22.5253C6.65984 23.2037 7.86429 23.7035 9.12444 24.0062C9.34779 23.4249 9.74211 22.9249 10.2554 22.5723C10.7687 22.2196 11.3768 22.0308 11.9996 22.0308C12.6223 22.0308 13.2304 22.2196 13.7437 22.5723C14.257 22.9249 14.6513 23.4249 14.8747 24.0062C16.1352 23.7046 17.3398 23.2048 18.4436 22.5253C18.1928 21.956 18.1199 21.3242 18.2345 20.7128C18.3491 20.1014 18.6458 19.5388 19.0856 19.099C19.5255 18.6591 20.088 18.3624 20.6995 18.2478C21.3109 18.1333 21.9427 18.2061 22.512 18.4569C23.1904 17.3526 23.6902 16.1482 23.9929 14.888C23.4116 14.661 22.9122 14.2639 22.56 13.7487C22.2078 13.2335 22.0192 12.6241 22.0187 12ZM12.056 16.9938C11.0671 16.9938 10.1004 16.7005 9.27815 16.1511C8.4559 15.6017 7.81504 14.8208 7.4366 13.9072C7.05816 12.9936 6.95915 11.9882 7.15207 11.0183C7.345 10.0484 7.8212 9.15751 8.52047 8.45824C9.21973 7.75898 10.1106 7.28278 11.0805 7.08985C12.0505 6.89693 13.0558 6.99594 13.9694 7.37438C14.883 7.75282 15.6639 8.39368 16.2133 9.21593C16.7628 10.0382 17.056 11.0049 17.056 11.9938C17.0562 12.6505 16.9271 13.3007 16.6759 13.9075C16.4247 14.5142 16.0564 15.0655 15.5921 15.5298C15.1277 15.9942 14.5764 16.3625 13.9697 16.6137C13.363 16.8648 12.7127 16.994 12.056 16.9938Z" fill="#AFAFAF"/>
</svg>
